<?xml version="1.0" encoding="utf-8"?>
<!-- Generator: Adobe Illustrator 16.0.0, SVG Export Plug-In . SVG Version: 6.00 Build 0)  -->
<!DOCTYPE svg PUBLIC "-//W3C//DTD SVG 1.1//EN" "http://www.w3.org/Graphics/SVG/1.1/DTD/svg11.dtd">
<svg version="1.1" id="Layer_1" xmlns="http://www.w3.org/2000/svg" xmlns:xlink="http://www.w3.org/1999/xlink" x="0px" y="0px"
	 width="200.101px" height="64.602px" viewBox="246.15 1620.199 200.101 64.602"
	 enable-background="new 246.15 1620.199 200.101 64.602" xml:space="preserve">
<g>
	<g>
		<g>
			<g>
				
					<linearGradient id="SVGID_1_" gradientUnits="userSpaceOnUse" x1="337.801" y1="923.6104" x2="337.801" y2="882.251" gradientTransform="matrix(1 0 0 -1 8.3999 2543.8096)">
					<stop  offset="0" style="stop-color:#FFFFFF"/>
					<stop  offset="1" style="stop-color:#D1D3D4"/>
				</linearGradient>
				<path fill="url(#SVGID_1_)" d="M432.65,1620.199h-175.8c-5.9,0-10.7,4.801-10.7,10.701v20.1c0,5.9,4.8,10.699,10.7,10.699h175.9
					c7.399,0,13.5-6.1,13.5-13.5V1633.8C446.15,1626.199,440.15,1620.199,432.65,1620.199z"/>
				<g>
					<g>
						<g>
							<defs>
								<path id="SVGID_2_" d="M442.65,1648c0,5.5-4.5,9.9-9.899,9.9h-82.7v-34.301h82.7c5.5,0,9.899,4.5,9.899,9.9V1648
									L442.65,1648z"/>
							</defs>
							<clipPath id="SVGID_3_">
								<use xlink:href="#SVGID_2_"  overflow="visible"/>
							</clipPath>
							<path clip-path="url(#SVGID_3_)" fill="#FAA61A" d="M442.65,1623.699h-92.699H442.65z"/>
						</g>
						<g>
							<defs>
								<path id="SVGID_4_" d="M442.65,1648c0,5.5-4.5,9.9-9.899,9.9h-82.7v-34.301h82.7c5.5,0,9.899,4.5,9.899,9.9V1648
									L442.65,1648z"/>
							</defs>
							<clipPath id="SVGID_5_">
								<use xlink:href="#SVGID_4_"  overflow="visible"/>
							</clipPath>
							<rect x="349.951" y="1623.699" clip-path="url(#SVGID_5_)" fill="#FAA61A" width="92.699" height="17.102"/>
						</g>
						<g>
							<defs>
								<path id="SVGID_6_" d="M442.65,1648c0,5.5-4.5,9.9-9.899,9.9h-82.7v-34.301h82.7c5.5,0,9.899,4.5,9.899,9.9V1648
									L442.65,1648z"/>
							</defs>
							<clipPath id="SVGID_7_">
								<use xlink:href="#SVGID_6_"  overflow="visible"/>
							</clipPath>
							<rect x="349.951" y="1640.9" clip-path="url(#SVGID_7_)" fill="#F37021" width="92.699" height="17.1"/>
						</g>
						<g>
							<defs>
								<path id="SVGID_8_" d="M442.65,1648c0,5.5-4.5,9.9-9.899,9.9h-82.7v-34.301h82.7c5.5,0,9.899,4.5,9.899,9.9V1648
									L442.65,1648z"/>
							</defs>
							<clipPath id="SVGID_9_">
								<use xlink:href="#SVGID_8_"  overflow="visible"/>
							</clipPath>
							<path clip-path="url(#SVGID_9_)" fill="#F58220" d="M349.951,1658h92.699H349.951z"/>
						</g>
					</g>
				</g>
				<g>
					<g>
						<g>
							<defs>
								<path id="SVGID_10_" d="M256.85,1623.699c-3.9,0-7.101,3.201-7.101,7.102v20.1c0,3.9,3.2,7.1,7.101,7.1h93.101v-34.301
									H256.85L256.85,1623.699z"/>
							</defs>
							<clipPath id="SVGID_11_">
								<use xlink:href="#SVGID_10_"  overflow="visible"/>
							</clipPath>
							<path clip-path="url(#SVGID_11_)" fill="#0099DA" d="M349.951,1658"/>
						</g>
						<g>
							<defs>
								<path id="SVGID_12_" d="M256.85,1623.699c-3.9,0-7.101,3.201-7.101,7.102v20.1c0,3.9,3.2,7.1,7.101,7.1h93.101v-34.301
									H256.85L256.85,1623.699z"/>
							</defs>
							<clipPath id="SVGID_13_">
								<use xlink:href="#SVGID_12_"  overflow="visible"/>
							</clipPath>
							<rect x="249.75" y="1640.9" clip-path="url(#SVGID_13_)" fill="#008DD0" width="100.201" height="17.1"/>
						</g>
						<g>
							<defs>
								<path id="SVGID_14_" d="M256.85,1623.699c-3.9,0-7.101,3.201-7.101,7.102v20.1c0,3.9,3.2,7.1,7.101,7.1h93.101v-34.301
									H256.85L256.85,1623.699z"/>
							</defs>
							<clipPath id="SVGID_15_">
								<use xlink:href="#SVGID_14_"  overflow="visible"/>
							</clipPath>
							<rect x="249.75" y="1623.699" clip-path="url(#SVGID_15_)" fill="#14B1E7" width="100.201" height="17.102"/>
						</g>
						<g>
							<defs>
								<path id="SVGID_16_" d="M256.85,1623.699c-3.9,0-7.101,3.201-7.101,7.102v20.1c0,3.9,3.2,7.1,7.101,7.1h93.101v-34.301
									H256.85L256.85,1623.699z"/>
							</defs>
							<clipPath id="SVGID_17_">
								<use xlink:href="#SVGID_16_"  overflow="visible"/>
							</clipPath>
							<path clip-path="url(#SVGID_17_)" fill="#14B1E7" d="M349.951,1623.699H249.75H349.951z"/>
						</g>
					</g>
				</g>
				<g>
					<path fill="#FFFFFF" d="M270.551,1629.099c1.3,0,3,0.1,4.3,1.4s1.5,3.5,1.5,5.1c0,1.301-0.101,2.6-1.101,3.801
						c-0.699,0.799-1.399,1.1-2.199,1.199v0.1c1.1,0.102,2,0.602,2.6,1.301c1.1,1.199,1.1,2.9,1.1,4.199c0,1.5,0,3.4-1.3,5
						c-1.3,1.5-2.899,1.5-4.3,1.5h-11.3c-1.2,0-2.3,0.102-3.2-1c-0.2-0.299-0.8-1-0.8-2.398v-16.9c0-0.9,0.2-1.801,0.7-2.4
						c0.699-0.801,1.8-1,2.5-1h11.5V1629.099z M260.15,1639h8.6c0.9,0,1.801,0,2.4-0.801c0.2-0.199,0.5-0.799,0.5-2.398
						c0-0.602,0-1.801-0.8-2.5c-0.601-0.602-1.5-0.602-2.2-0.602h-7.3c-0.4,0-0.7,0-1,0.301s-0.3,0.801-0.3,1v5H260.15z
						 M260.15,1647.4c0,0.799,0.1,1.199,0.3,1.4c0.4,0.398,1.101,0.398,1.5,0.398h7c0.7,0,1.9,0,2.601-0.799
						c0.5-0.6,0.6-1.701,0.6-2.4s-0.1-1.801-0.5-2.4c-0.3-0.4-0.9-1-2.4-1h-9v4.801H260.15z"/>
					<path fill="#FFFFFF" d="M287.65,1631.4c0.8-2,1.8-2.701,3.9-2.701c2,0,3,0.701,3.899,2.701l8.9,21.199h-4.7l-2.4-6H285.85
						l-2.4,6h-4.7L287.65,1631.4z M286.95,1643.5h9.101l-3.801-9.6c-0.1-0.301-0.399-1-0.699-1c-0.301,0-0.5,0.6-0.7,1
						L286.95,1643.5z"/>
					<path fill="#FFFFFF" d="M310.051,1652.699c-0.8,0-1.7-0.199-2.2-0.6c-0.399-0.299-0.8-0.9-0.8-2v-21h4.5v18.801
						c0,0.299,0,0.699,0.3,1c0.101,0.1,0.4,0.299,1.101,0.299h12.899v3.5H310.051L310.051,1652.699z"/>
					<path fill="#FFFFFF" d="M330.35,1652.699v-20.1h-9.2v-3.5h22.9v3.5h-9.2v20.1H330.35z"/>
				</g>
				<g>
					<path fill="#FFFFFF" d="M373.951,1650.099c-0.7,1.801-1.301,2.801-3.4,2.801c-2.3,0-2.8-1.301-3.4-2.801l-6-15.799
						c-0.1-0.301-0.399-0.801-0.6-0.801c-0.4,0-0.4,0.6-0.4,0.699l0.101,18.4h-4.5V1631.8c0-3.102,3.1-3.102,3.8-3.102
						c2.7,0,3.5,1.4,4.2,3l6.1,15.801c0.2,0.5,0.4,0.9,0.601,0.9c0.199,0,0.399-0.4,0.6-0.9l6.1-15.801c1-2.699,2.5-3,4.101-3
						c2.2,0,3.8,0.9,3.8,3.102v20.799h-4.5l0.1-18.4c0-0.6-0.3-0.699-0.399-0.699c-0.2,0-0.5,0.5-0.601,0.801L373.951,1650.099z"/>
					<path fill="#FFFFFF" d="M394.65,1652.699c-1,0-1.899,0-2.699-0.699c-0.801-0.801-0.9-1.9-0.9-2.801V1632.5
						c0-0.9,0.3-1.9,0.8-2.5c0.8-0.801,1.9-0.9,2.8-0.9h15.101v3.5h-12.7c-0.4,0-0.9,0-1.2,0.301c-0.4,0.299-0.4,0.799-0.4,1.1
						v4.801h14v3.5h-14v5.5c0,0.398,0.101,0.699,0.301,0.898c0.3,0.301,0.8,0.301,1.5,0.301h12.6v3.5h-15.2V1652.699z"/>
					<path fill="#FFFFFF" d="M418.251,1652.699c-1.8,0-2.5-0.5-2.601-0.6c-0.399-0.299-1-1-1-2.4V1632.9c0-0.9,0-1.9,0.8-2.801
						c0.301-0.4,1.101-1,2.5-1h9.2c3.3,0,5.5,1.201,6.9,2.801c2.3,2.5,2.399,5.9,2.399,8.699c0,2.6-0.199,6.6-2.1,9.201
						c-0.9,1.199-2.9,2.898-6.6,2.898H418.251L418.251,1652.699z M419.15,1647.5c0,0.5,0,0.9,0.301,1.301
						c0.3,0.299,0.699,0.299,1.1,0.299h5.1c2.5,0,4.101-0.5,5.101-2.199c0.6-0.9,1.2-2.699,1.2-6.699c0-2-0.2-4.4-1.7-5.9
						c-1.4-1.4-3.5-1.701-5.101-1.701h-4.6c-0.3,0-0.7,0-1,0.201c-0.3,0.199-0.5,0.699-0.5,1.199v13.5H419.15z"/>
				</g>
				
					<linearGradient id="SVGID_18_" gradientUnits="userSpaceOnUse" x1="337.7502" y1="885.8218" x2="337.7502" y2="920.0835" gradientTransform="matrix(1 0 0 -1 8.3999 2543.8096)">
					<stop  offset="0.1455" style="stop-color:#FFFFFF"/>
					<stop  offset="0.2072" style="stop-color:#F3F4F4"/>
					<stop  offset="0.4094" style="stop-color:#DBDCDD"/>
					<stop  offset="0.6107" style="stop-color:#CACBCD"/>
					<stop  offset="0.8088" style="stop-color:#BFC1C3"/>
					<stop  offset="1" style="stop-color:#BCBEC0"/>
				</linearGradient>
				<path fill="url(#SVGID_18_)" d="M432.65,1623.699h-82.699H256.85c-3.9,0-7.101,3.201-7.101,7.102v10v10
					c0,3.898,3.2,7.1,7.101,7.1h93.101h82.699c5.5,0,9.9-4.5,9.9-9.9v-7.199v-7.201
					C442.65,1628.199,438.15,1623.699,432.65,1623.699z M441.15,1648c0,4.699-3.8,8.5-8.5,8.5h-175.8c-3.101,0-5.7-2.5-5.7-5.699
					v-10v-10c0-3.102,2.5-5.701,5.7-5.701h175.9c4.7,0,8.5,3.801,8.5,8.5v7.201V1648H441.15z"/>
			</g>
		</g>
	</g>
	<g>
		<path fill="#008DD0" d="M311.85,1684c0.601,0,1.3,0,2-0.1v0.699c-0.899,0.1-2.1,0.201-3,0.201c-2.8,0-4.1-0.5-4.1-4.602
			c0-4.6,0.5-5.699,4.5-5.699c0.5,0,1.7,0.1,2.6,0.199v0.9c-2.1-0.1-2.399-0.199-2.6-0.199c-3.3,0-3.4,0.9-3.4,4.9
			C307.85,1683.9,308.65,1684,311.85,1684z"/>
		<path fill="#008DD0" d="M322.15,1684.699v-10h1.101v9.102h5.1v0.898H322.15z"/>
		<path fill="#008DD0" d="M337.251,1684.699h-1.101v-10h1.101V1684.699z"/>
		<path fill="#008DD0" d="M352.35,1684.699l-5.3-9v9h-1.1v-10h1.6l5.4,9v-9h1.1v10H352.35z"/>
		<path fill="#008DD0" d="M363.85,1684.699h-1.1v-10h1.1V1684.699z"/>
		<path fill="#008DD0" d="M377.35,1684c0.601,0,1.3,0,2-0.1v0.699c-0.899,0.1-2.1,0.201-3,0.201c-2.8,0-4.1-0.5-4.1-4.602
			c0-4.6,0.5-5.699,4.5-5.699c0.5,0,1.7,0.1,2.6,0.199v0.9c-2.1-0.1-2.399-0.199-2.6-0.199c-3.3,0-3.4,0.9-3.4,4.9
			C373.251,1683.9,374.15,1684,377.35,1684z"/>
	</g>
</g>
</svg>
